PathFileType	4	(X/Y/Z)	stat.trc	
DataRate	CameraRate	NumFrames	NumMarkers	Units	OrigDataRate	OrigDataStartFrame	OrigNumFrames	
0.00	0.00	10	15	m	100.00	1	100	
Frame#	Time	RTT			RHF			RLM			RMM			RCA			RPT			RST			RVMB			RTN			RSMB			RFMB			RVMH			RSMH			RFMH			RPM			
		X1	Y1	Z1	X2	Y2	Z2	X3	Y3	Z3	X4	Y4	Z4	X5	Y5	Z5	X6	Y6	Z6	X7	Y7	Z7	X8	Y8	Z8	X9	Y9	Z9	X10	Y10	Z10	X11	Y11	Z11	X12	Y12	Z12	X13	Y13	Z13	X14	Y14	Z14	X15	Y15	Z15	

1	0.000	0.23567	0.44270	-0.09846	0.17665	0.46426	-0.04279	0.18313	0.05626	-0.09558	0.20338	0.07801	-0.17320	0.13164	0.01884	-0.13900	0.18475	0.03295	-0.09842	0.20247	0.04859	-0.16906	0.23312	0.02574	-0.08318	0.24093	0.04377	-0.16556	0.27333	0.06468	-0.11276	0.28670	0.04936	-0.15007	0.28367	0.02224	-0.05957	0.32777	0.03568	-0.10370	0.33272	0.03636	-0.14268	0.36874	0.02204	-0.13867 
2	0.010	0.23569	0.44268	-0.09843	0.17667	0.46428	-0.04268	0.18315	0.05627	-0.09556	0.20349	0.07805	-0.17326	0.13166	0.01884	-0.13899	0.18478	0.03298	-0.09840	0.20247	0.04847	-0.16903	0.23314	0.02577	-0.08316	0.24093	0.04374	-0.16554	0.27337	0.06480	-0.11263	0.28671	0.04932	-0.15012	0.28369	0.02226	-0.05955	0.32781	0.03570	-0.10370	0.33284	0.03647	-0.14267	0.36876	0.02206	-0.13867 
3	0.020	0.23572	0.44266	-0.09840	0.17670	0.46429	-0.04258	0.18317	0.05628	-0.09555	0.20359	0.07808	-0.17331	0.13168	0.01885	-0.13898	0.18481	0.03301	-0.09838	0.20248	0.04835	-0.16899	0.23317	0.02579	-0.08315	0.24094	0.04371	-0.16551	0.27341	0.06491	-0.11252	0.28673	0.04928	-0.15016	0.28370	0.02228	-0.05953	0.32784	0.03571	-0.10370	0.33295	0.03658	-0.14265	0.36877	0.02208	-0.13867 
4	0.030	0.23574	0.44264	-0.09837	0.17673	0.46431	-0.04247	0.18319	0.05629	-0.09554	0.20368	0.07811	-0.17336	0.13170	0.01886	-0.13897	0.18483	0.03304	-0.09836	0.20248	0.04823	-0.16896	0.23319	0.02582	-0.08313	0.24094	0.04368	-0.16548	0.27345	0.06501	-0.11240	0.28674	0.04925	-0.15020	0.28372	0.02230	-0.05951	0.32787	0.03572	-0.10370	0.33305	0.03668	-0.14264	0.36879	0.02210	-0.13868 
5	0.040	0.23577	0.44262	-0.09834	0.17675	0.46432	-0.04238	0.18321	0.05630	-0.09552	0.20376	0.07814	-0.17340	0.13172	0.01887	-0.13896	0.18486	0.03307	-0.09834	0.20248	0.04813	-0.16893	0.23321	0.02585	-0.08312	0.24094	0.04366	-0.16546	0.27348	0.06511	-0.11230	0.28675	0.04921	-0.15023	0.28373	0.02233	-0.05949	0.32790	0.03573	-0.10370	0.33314	0.03677	-0.14263	0.36881	0.02212	-0.13868 
6	0.050	0.23579	0.44261	-0.09832	0.17678	0.46434	-0.04230	0.18322	0.05631	-0.09551	0.20384	0.07817	-0.17344	0.13173	0.01888	-0.13895	0.18488	0.03310	-0.09831	0.20249	0.04804	-0.16890	0.23323	0.02588	-0.08310	0.24094	0.04365	-0.16544	0.27351	0.06519	-0.11222	0.28676	0.04918	-0.15026	0.28374	0.02235	-0.05948	0.32792	0.03574	-0.10369	0.33322	0.03685	-0.14262	0.36882	0.02214	-0.13868 
7	0.060	0.23581	0.44259	-0.09829	0.17680	0.46434	-0.04223	0.18323	0.05633	-0.09549	0.20389	0.07819	-0.17346	0.13175	0.01889	-0.13894	0.18490	0.03313	-0.09829	0.20249	0.04797	-0.16888	0.23325	0.02590	-0.08309	0.24095	0.04363	-0.16542	0.27353	0.06526	-0.11215	0.28676	0.04915	-0.15028	0.28375	0.02237	-0.05946	0.32794	0.03575	-0.10369	0.33328	0.03691	-0.14262	0.36883	0.02216	-0.13868 
8	0.070	0.23584	0.44258	-0.09827	0.17682	0.46435	-0.04217	0.18324	0.05634	-0.09547	0.20394	0.07821	-0.17348	0.13176	0.01890	-0.13893	0.18492	0.03315	-0.09827	0.20249	0.04792	-0.16886	0.23327	0.02593	-0.08307	0.24095	0.04363	-0.16541	0.27355	0.06531	-0.11209	0.28676	0.04912	-0.15030	0.28376	0.02239	-0.05944	0.32796	0.03577	-0.10369	0.33333	0.03696	-0.14262	0.36885	0.02218	-0.13868 
9	0.080	0.23586	0.44258	-0.09825	0.17684	0.46436	-0.04213	0.18325	0.05636	-0.09545	0.20397	0.07822	-0.17350	0.13177	0.01891	-0.13891	0.18493	0.03318	-0.09825	0.20249	0.04788	-0.16885	0.23328	0.02595	-0.08306	0.24095	0.04362	-0.16539	0.27356	0.06535	-0.11205	0.28675	0.04910	-0.15031	0.28377	0.02241	-0.05943	0.32798	0.03578	-0.10368	0.33336	0.03699	-0.14262	0.36886	0.02220	-0.13868 
10	0.090	0.23589	0.44257	-0.09824	0.17687	0.46436	-0.04210	0.18325	0.05638	-0.09543	0.20399	0.07823	-0.17350	0.13178	0.01892	-0.13890	0.18494	0.03319	-0.09823	0.20249	0.04785	-0.16884	0.23329	0.02598	-0.08304	0.24095	0.04362	-0.16538	0.27357	0.06537	-0.11202	0.28675	0.04908	-0.15032	0.28378	0.02242	-0.05942	0.32799	0.03579	-0.10368	0.33339	0.03701	-0.14262	0.36887	0.02222	-0.13868 
